<svg width="185" height="37" viewBox="0 0 185 37" fill="none" xmlns="http://www.w3.org/2000/svg">
<rect x="19" y="0.115234" width="12" height="12" rx="2" transform="rotate(45 19 0.115234)" fill="#1166EA"/>
<rect x="9.10046" y="10.0146" width="12" height="12" rx="2" transform="rotate(45 9.10046 10.0146)" fill="#1166EA"/>
<rect x="28.8995" y="10.0146" width="12" height="12" rx="2" transform="rotate(45 28.8995 10.0146)" fill="#1166EA"/>
<rect x="19" y="19.9141" width="12" height="12" rx="2" transform="rotate(45 19 19.9141)" fill="#1166EA"/>
<path d="M48.13 14.004C49.4367 14.004 50.3887 14.27 50.986 14.802C51.5833 15.3247 51.882 16.0573 51.882 17C51.882 17.42 51.812 17.8213 51.672 18.204C51.5413 18.5867 51.322 18.932 51.014 19.24C50.706 19.5387 50.2953 19.7767 49.782 19.954C49.278 20.122 48.6573 20.206 47.92 20.206H46.842V24H45.33V14.004H48.13ZM48.018 15.278H46.842V18.932H47.752C48.3213 18.932 48.7973 18.8713 49.18 18.75C49.5627 18.6193 49.8473 18.4187 50.034 18.148C50.23 17.868 50.328 17.504 50.328 17.056C50.328 16.4587 50.1413 16.0153 49.768 15.726C49.404 15.4273 48.8207 15.278 48.018 15.278ZM57.4583 16.314C57.5889 16.314 57.7336 16.3233 57.8923 16.342C58.0509 16.3513 58.1816 16.3653 58.2843 16.384L58.1303 17.77C58.0276 17.742 57.9063 17.7187 57.7663 17.7C57.6263 17.6813 57.4956 17.672 57.3743 17.672C57.0943 17.672 56.8236 17.728 56.5623 17.84C56.3103 17.9427 56.0816 18.0967 55.8763 18.302C55.6709 18.498 55.5076 18.7407 55.3863 19.03C55.2743 19.3193 55.2183 19.6507 55.2183 20.024V24H53.7343V16.454H54.9103L55.1063 17.798H55.1623C55.3209 17.5273 55.5123 17.28 55.7363 17.056C55.9603 16.832 56.2169 16.6547 56.5063 16.524C56.7956 16.384 57.1129 16.314 57.4583 16.314ZM66.0581 20.22C66.0581 20.8453 65.9741 21.4007 65.8061 21.886C65.6381 22.3713 65.4001 22.782 65.0921 23.118C64.7841 23.454 64.4108 23.7107 63.9721 23.888C63.5334 24.056 63.0388 24.14 62.4881 24.14C61.9841 24.14 61.5174 24.056 61.0881 23.888C60.6588 23.7107 60.2854 23.454 59.9681 23.118C59.6601 22.782 59.4174 22.3713 59.2401 21.886C59.0628 21.4007 58.9741 20.8407 58.9741 20.206C58.9741 19.3753 59.1141 18.6707 59.3941 18.092C59.6834 17.5133 60.0941 17.0747 60.6261 16.776C61.1674 16.468 61.8021 16.314 62.5301 16.314C63.2208 16.314 63.8274 16.468 64.3501 16.776C64.8821 17.0747 65.2974 17.5133 65.5961 18.092C65.9041 18.6707 66.0581 19.38 66.0581 20.22ZM60.5001 20.22C60.5001 20.78 60.5701 21.2653 60.7101 21.676C60.8501 22.0773 61.0694 22.3853 61.3681 22.6C61.6668 22.8147 62.0494 22.922 62.5161 22.922C62.9828 22.922 63.3654 22.8147 63.6641 22.6C63.9628 22.3853 64.1821 22.0773 64.3221 21.676C64.4621 21.2653 64.5321 20.78 64.5321 20.22C64.5321 19.6413 64.4574 19.156 64.3081 18.764C64.1681 18.372 63.9488 18.0733 63.6501 17.868C63.3608 17.6533 62.9781 17.546 62.5021 17.546C61.8021 17.546 61.2934 17.7793 60.9761 18.246C60.6588 18.7127 60.5001 19.3707 60.5001 20.22ZM67.1413 27.36C66.908 27.36 66.6933 27.3413 66.4973 27.304C66.292 27.276 66.1147 27.2387 65.9653 27.192V26.002C66.1147 26.0393 66.264 26.072 66.4133 26.1C66.5627 26.128 66.7307 26.142 66.9173 26.142C67.2067 26.142 67.4493 26.058 67.6453 25.89C67.8413 25.7313 67.9393 25.4233 67.9393 24.966V16.454H69.4233V25.036C69.4233 25.5027 69.344 25.9087 69.1853 26.254C69.0267 26.6087 68.7793 26.8793 68.4433 27.066C68.1167 27.262 67.6827 27.36 67.1413 27.36ZM67.8413 14.438C67.8413 14.13 67.9207 13.9107 68.0793 13.78C68.2473 13.6493 68.4527 13.584 68.6953 13.584C68.9193 13.584 69.1153 13.6493 69.2833 13.78C69.4513 13.9107 69.5353 14.13 69.5353 14.438C69.5353 14.7367 69.4513 14.956 69.2833 15.096C69.1153 15.2267 68.9193 15.292 68.6953 15.292C68.4527 15.292 68.2473 15.2267 68.0793 15.096C67.9207 14.956 67.8413 14.7367 67.8413 14.438ZM74.7218 16.314C75.3845 16.314 75.9538 16.454 76.4298 16.734C76.9058 17.0047 77.2698 17.3967 77.5218 17.91C77.7831 18.4233 77.9138 19.03 77.9138 19.73V20.542H72.8458C72.8645 21.3167 73.0651 21.9093 73.4478 22.32C73.8398 22.7307 74.3858 22.936 75.0858 22.936C75.5711 22.936 76.0005 22.894 76.3738 22.81C76.7565 22.7167 77.1485 22.5813 77.5498 22.404V23.636C77.1765 23.804 76.7938 23.93 76.4018 24.014C76.0191 24.098 75.5618 24.14 75.0298 24.14C74.3018 24.14 73.6578 23.9953 73.0978 23.706C72.5378 23.4167 72.0991 22.9873 71.7818 22.418C71.4738 21.8393 71.3198 21.13 71.3198 20.29C71.3198 19.4407 71.4598 18.722 71.7398 18.134C72.0291 17.546 72.4258 17.098 72.9298 16.79C73.4431 16.4727 74.0405 16.314 74.7218 16.314ZM74.7218 17.462C74.1898 17.462 73.7605 17.6347 73.4338 17.98C73.1165 18.3253 72.9298 18.8153 72.8738 19.45H76.4298C76.4298 19.058 76.3691 18.7127 76.2478 18.414C76.1265 18.1153 75.9398 17.882 75.6878 17.714C75.4358 17.546 75.1138 17.462 74.7218 17.462ZM82.8035 24.14C82.1128 24.14 81.5062 24.0047 80.9835 23.734C80.4608 23.4633 80.0548 23.0433 79.7655 22.474C79.4762 21.8953 79.3315 21.1627 79.3315 20.276C79.3315 19.3427 79.4855 18.5867 79.7935 18.008C80.1108 17.4293 80.5355 17.0047 81.0675 16.734C81.6088 16.454 82.2248 16.314 82.9155 16.314C83.3355 16.314 83.7275 16.3607 84.0915 16.454C84.4648 16.538 84.7728 16.636 85.0155 16.748L84.5675 17.952C84.3062 17.8493 84.0262 17.7607 83.7275 17.686C83.4382 17.6113 83.1628 17.574 82.9015 17.574C82.4348 17.574 82.0475 17.6767 81.7395 17.882C81.4408 18.078 81.2168 18.3767 81.0675 18.778C80.9275 19.17 80.8575 19.6647 80.8575 20.262C80.8575 20.8313 80.9322 21.312 81.0815 21.704C81.2308 22.096 81.4502 22.3947 81.7395 22.6C82.0382 22.796 82.4068 22.894 82.8455 22.894C83.2655 22.894 83.6342 22.8473 83.9515 22.754C84.2688 22.6607 84.5675 22.5393 84.8475 22.39V23.678C84.5768 23.8367 84.2828 23.9533 83.9655 24.028C83.6482 24.1027 83.2608 24.14 82.8035 24.14ZM89.3448 22.936C89.5408 22.936 89.7415 22.9173 89.9468 22.88C90.1521 22.8427 90.3295 22.8007 90.4788 22.754V23.874C90.3201 23.9487 90.1055 24.0093 89.8348 24.056C89.5641 24.112 89.2935 24.14 89.0228 24.14C88.6121 24.14 88.2341 24.07 87.8888 23.93C87.5528 23.79 87.2821 23.5473 87.0768 23.202C86.8715 22.8567 86.7688 22.376 86.7688 21.76V17.588H85.7188V16.916L86.8248 16.356L87.3428 14.76H88.2528V16.454H90.4088V17.588H88.2528V21.732C88.2528 22.1427 88.3508 22.446 88.5468 22.642C88.7521 22.838 89.0181 22.936 89.3448 22.936ZM100.147 24L97.1229 15.502H97.0669C97.0762 15.6887 97.0902 15.9407 97.1089 16.258C97.1276 16.5753 97.1416 16.916 97.1509 17.28C97.1602 17.644 97.1649 18.0033 97.1649 18.358V24H95.7929V14.004H97.9489L100.819 22.026H100.875L103.829 14.004H105.985V24H104.515V18.274C104.515 17.9473 104.52 17.6113 104.529 17.266C104.548 16.9113 104.562 16.58 104.571 16.272C104.59 15.964 104.604 15.712 104.613 15.516H104.557L101.449 24H100.147ZM111.402 16.314C112.354 16.314 113.064 16.524 113.53 16.944C113.997 17.3547 114.23 18.0033 114.23 18.89V24H113.18L112.886 22.95H112.83C112.616 23.2207 112.392 23.4447 112.158 23.622C111.934 23.7993 111.673 23.93 111.374 24.014C111.085 24.098 110.73 24.14 110.31 24.14C109.862 24.14 109.456 24.0607 109.092 23.902C108.738 23.734 108.458 23.482 108.252 23.146C108.047 22.8007 107.944 22.3713 107.944 21.858C107.944 21.0927 108.234 20.5093 108.812 20.108C109.4 19.7067 110.292 19.4873 111.486 19.45L112.774 19.408V18.988C112.774 18.428 112.648 18.036 112.396 17.812C112.144 17.588 111.79 17.476 111.332 17.476C110.94 17.476 110.567 17.532 110.212 17.644C109.858 17.756 109.522 17.8913 109.204 18.05L108.728 16.972C109.083 16.7853 109.489 16.6313 109.946 16.51C110.413 16.3793 110.898 16.314 111.402 16.314ZM111.752 20.402C110.894 20.4393 110.296 20.584 109.96 20.836C109.634 21.0787 109.47 21.424 109.47 21.872C109.47 22.264 109.587 22.5487 109.82 22.726C110.063 22.9033 110.366 22.992 110.73 22.992C111.318 22.992 111.804 22.8287 112.186 22.502C112.569 22.1753 112.76 21.6853 112.76 21.032V20.374L111.752 20.402ZM120.338 16.314C121.215 16.314 121.887 16.5333 122.354 16.972C122.82 17.4107 123.054 18.1153 123.054 19.086V24H121.584V19.296C121.584 18.708 121.458 18.2693 121.206 17.98C120.963 17.6813 120.571 17.532 120.03 17.532C119.264 17.532 118.732 17.7607 118.434 18.218C118.144 18.6753 118 19.3333 118 20.192V24H116.516V16.454H117.692L117.902 17.462H117.986C118.154 17.2007 118.359 16.986 118.602 16.818C118.844 16.65 119.115 16.524 119.414 16.44C119.712 16.356 120.02 16.314 120.338 16.314ZM128.26 16.314C129.212 16.314 129.921 16.524 130.388 16.944C130.855 17.3547 131.088 18.0033 131.088 18.89V24H130.038L129.744 22.95H129.688C129.473 23.2207 129.249 23.4447 129.016 23.622C128.792 23.7993 128.531 23.93 128.232 24.014C127.943 24.098 127.588 24.14 127.168 24.14C126.72 24.14 126.314 24.0607 125.95 23.902C125.595 23.734 125.315 23.482 125.11 23.146C124.905 22.8007 124.802 22.3713 124.802 21.858C124.802 21.0927 125.091 20.5093 125.67 20.108C126.258 19.7067 127.149 19.4873 128.344 19.45L129.632 19.408V18.988C129.632 18.428 129.506 18.036 129.254 17.812C129.002 17.588 128.647 17.476 128.19 17.476C127.798 17.476 127.425 17.532 127.07 17.644C126.715 17.756 126.379 17.8913 126.062 18.05L125.586 16.972C125.941 16.7853 126.347 16.6313 126.804 16.51C127.271 16.3793 127.756 16.314 128.26 16.314ZM128.61 20.402C127.751 20.4393 127.154 20.584 126.818 20.836C126.491 21.0787 126.328 21.424 126.328 21.872C126.328 22.264 126.445 22.5487 126.678 22.726C126.921 22.9033 127.224 22.992 127.588 22.992C128.176 22.992 128.661 22.8287 129.044 22.502C129.427 22.1753 129.618 21.6853 129.618 21.032V20.374L128.61 20.402ZM135.977 16.314C136.462 16.314 136.901 16.4073 137.293 16.594C137.685 16.7807 138.016 17.0653 138.287 17.448H138.357L138.525 16.454H139.729V24.098C139.729 24.8073 139.603 25.4047 139.351 25.89C139.099 26.3753 138.712 26.7393 138.189 26.982C137.676 27.234 137.027 27.36 136.243 27.36C135.702 27.36 135.202 27.3227 134.745 27.248C134.288 27.1733 133.868 27.0567 133.485 26.898V25.596C133.756 25.7267 134.04 25.834 134.339 25.918C134.638 26.0113 134.955 26.0767 135.291 26.114C135.627 26.1607 135.972 26.184 136.327 26.184C136.943 26.184 137.419 26.0067 137.755 25.652C138.091 25.3067 138.259 24.8167 138.259 24.182V23.93C138.259 23.8087 138.264 23.65 138.273 23.454C138.282 23.2487 138.292 23.0993 138.301 23.006H138.245C137.984 23.398 137.662 23.6873 137.279 23.874C136.906 24.0513 136.472 24.14 135.977 24.14C135.025 24.14 134.278 23.7993 133.737 23.118C133.205 22.4273 132.939 21.4707 132.939 20.248C132.939 19.4267 133.06 18.7267 133.303 18.148C133.546 17.56 133.891 17.1073 134.339 16.79C134.796 16.4727 135.342 16.314 135.977 16.314ZM136.285 17.546C135.893 17.546 135.562 17.6533 135.291 17.868C135.02 18.0733 134.815 18.3767 134.675 18.778C134.535 19.1793 134.465 19.674 134.465 20.262C134.465 21.1393 134.619 21.8067 134.927 22.264C135.244 22.7213 135.706 22.95 136.313 22.95C136.668 22.95 136.966 22.9033 137.209 22.81C137.461 22.7167 137.666 22.572 137.825 22.376C137.993 22.18 138.114 21.9327 138.189 21.634C138.273 21.326 138.315 20.9573 138.315 20.528V20.248C138.315 19.604 138.24 19.086 138.091 18.694C137.951 18.2927 137.732 18.0033 137.433 17.826C137.134 17.6393 136.752 17.546 136.285 17.546ZM145.023 16.314C145.685 16.314 146.255 16.454 146.731 16.734C147.207 17.0047 147.571 17.3967 147.823 17.91C148.084 18.4233 148.215 19.03 148.215 19.73V20.542H143.147C143.165 21.3167 143.366 21.9093 143.749 22.32C144.141 22.7307 144.687 22.936 145.387 22.936C145.872 22.936 146.301 22.894 146.675 22.81C147.057 22.7167 147.449 22.5813 147.851 22.404V23.636C147.477 23.804 147.095 23.93 146.703 24.014C146.32 24.098 145.863 24.14 145.331 24.14C144.603 24.14 143.959 23.9953 143.399 23.706C142.839 23.4167 142.4 22.9873 142.083 22.418C141.775 21.8393 141.621 21.13 141.621 20.29C141.621 19.4407 141.761 18.722 142.041 18.134C142.33 17.546 142.727 17.098 143.231 16.79C143.744 16.4727 144.341 16.314 145.023 16.314ZM145.023 17.462C144.491 17.462 144.061 17.6347 143.735 17.98C143.417 18.3253 143.231 18.8153 143.175 19.45H146.731C146.731 19.058 146.67 18.7127 146.549 18.414C146.427 18.1153 146.241 17.882 145.989 17.714C145.737 17.546 145.415 17.462 145.023 17.462ZM158.522 16.314C159.372 16.314 160.011 16.5333 160.44 16.972C160.87 17.4107 161.084 18.1153 161.084 19.086V24H159.6V19.282C159.6 18.7033 159.484 18.2693 159.25 17.98C159.026 17.6813 158.672 17.532 158.186 17.532C157.514 17.532 157.034 17.742 156.744 18.162C156.455 18.5727 156.31 19.17 156.31 19.954V24H154.84V19.282C154.84 18.8993 154.784 18.5773 154.672 18.316C154.57 18.0547 154.416 17.8587 154.21 17.728C154.005 17.5973 153.739 17.532 153.412 17.532C152.946 17.532 152.577 17.6347 152.306 17.84C152.036 18.0453 151.84 18.3487 151.718 18.75C151.606 19.142 151.55 19.6227 151.55 20.192V24H150.066V16.454H151.242L151.452 17.462H151.536C151.695 17.2007 151.886 16.986 152.11 16.818C152.344 16.65 152.6 16.524 152.88 16.44C153.16 16.356 153.45 16.314 153.748 16.314C154.318 16.314 154.798 16.4167 155.19 16.622C155.582 16.818 155.867 17.1213 156.044 17.532H156.156C156.399 17.112 156.735 16.804 157.164 16.608C157.594 16.412 158.046 16.314 158.522 16.314ZM166.323 16.314C166.986 16.314 167.555 16.454 168.031 16.734C168.507 17.0047 168.871 17.3967 169.123 17.91C169.385 18.4233 169.515 19.03 169.515 19.73V20.542H164.447C164.466 21.3167 164.667 21.9093 165.049 22.32C165.441 22.7307 165.987 22.936 166.687 22.936C167.173 22.936 167.602 22.894 167.975 22.81C168.358 22.7167 168.75 22.5813 169.151 22.404V23.636C168.778 23.804 168.395 23.93 168.003 24.014C167.621 24.098 167.163 24.14 166.631 24.14C165.903 24.14 165.259 23.9953 164.699 23.706C164.139 23.4167 163.701 22.9873 163.383 22.418C163.075 21.8393 162.921 21.13 162.921 20.29C162.921 19.4407 163.061 18.722 163.341 18.134C163.631 17.546 164.027 17.098 164.531 16.79C165.045 16.4727 165.642 16.314 166.323 16.314ZM166.323 17.462C165.791 17.462 165.362 17.6347 165.035 17.98C164.718 18.3253 164.531 18.8153 164.475 19.45H168.031C168.031 19.058 167.971 18.7127 167.849 18.414C167.728 18.1153 167.541 17.882 167.289 17.714C167.037 17.546 166.715 17.462 166.323 17.462ZM175.189 16.314C176.066 16.314 176.738 16.5333 177.205 16.972C177.672 17.4107 177.905 18.1153 177.905 19.086V24H176.435V19.296C176.435 18.708 176.309 18.2693 176.057 17.98C175.814 17.6813 175.422 17.532 174.881 17.532C174.116 17.532 173.584 17.7607 173.285 18.218C172.996 18.6753 172.851 19.3333 172.851 20.192V24H171.367V16.454H172.543L172.753 17.462H172.837C173.005 17.2007 173.21 16.986 173.453 16.818C173.696 16.65 173.966 16.524 174.265 16.44C174.564 16.356 174.872 16.314 175.189 16.314ZM182.901 22.936C183.097 22.936 183.298 22.9173 183.503 22.88C183.709 22.8427 183.886 22.8007 184.035 22.754V23.874C183.877 23.9487 183.662 24.0093 183.391 24.056C183.121 24.112 182.85 24.14 182.579 24.14C182.169 24.14 181.791 24.07 181.445 23.93C181.109 23.79 180.839 23.5473 180.633 23.202C180.428 22.8567 180.325 22.376 180.325 21.76V17.588H179.275V16.916L180.381 16.356L180.899 14.76H181.809V16.454H183.965V17.588H181.809V21.732C181.809 22.1427 181.907 22.446 182.103 22.642C182.309 22.838 182.575 22.936 182.901 22.936Z" fill="#1A1A1A"/>
</svg>
